<svg width="20" height="20" viewBox="0 0 20 20" fill="none" xmlns="http://www.w3.org/2000/svg">
<path d="M12.3632 6.99989L10.8522 3.85292C10.1615 2.41425 8 2.90626 8 4.50216V6.28153L6.00007 5.7361V4.20449C6.00007 2.98188 4.38555 2.5423 3.76572 3.59611L2.24057 6.18912C1.67415 7.15213 2.14291 8.39211 3.20476 8.73956L6.61657 9.85597L4.94402 11.3834C3.76617 12.4591 4.85878 14.3862 6.38661 13.9278L12.9981 11.9441L16.029 12.9359C16.9988 13.2532 17.9955 12.5306 17.9955 11.5103L17.9955 10.9999C17.9955 8.79076 16.2046 6.99989 13.9955 6.99989L12.3632 6.99989ZM11.2539 6.99989H10.7679C10.679 6.99989 10.5905 6.98804 10.5048 6.96465L9 6.55426L9 4.50216C9 3.9702 9.72049 3.80619 9.95074 4.28575L11.2539 6.99989ZM2 17.5C2 17.2239 2.22386 17 2.5 17H17.5C17.7761 17 18 17.2239 18 17.5C18 17.7761 17.7761 18 17.5 18H2.5C2.22386 18 2 17.7761 2 17.5ZM13.5869 11.0878C13.2031 10.9656 12.7912 10.9622 12.4054 11.0779L6.09923 12.97C5.58996 13.1228 5.22575 12.4804 5.61837 12.1218L7.29093 10.5944C7.85636 10.078 7.65535 9.1437 6.92757 8.90556L3.51575 7.78915C3.06067 7.64024 2.85977 7.10882 3.10253 6.6961L4.62767 4.10309C4.73098 3.92746 5.00007 4.00072 5.00007 4.20449V6.118C5.00007 6.34347 5.15098 6.54105 5.36851 6.60038L10.2416 7.92941C10.4131 7.97619 10.5901 7.99989 10.7679 7.99989L13.9955 7.99989C15.6523 7.99989 16.9955 9.34304 16.9955 10.9999L16.9955 11.5103C16.9955 11.8504 16.6632 12.0912 16.34 11.9855L13.952 11.2041L13.5869 11.0878Z" fill="#242424"/>
</svg>
